<svg xmlns="http://www.w3.org/2000/svg" width="788.31" height="76.47" viewBox="0 0 788.31 76.47">
  <defs>
    <style>
      .cls-1 {
        fill-rule: evenodd;
      }
    </style>
  </defs>
  <path id="logo_02.svg" class="cls-1" d="M2718.57,4450.32a17.081,17.081,0,0,1,7,5.51,13.343,13.343,0,0,1,2.3,7.77,16.4,16.4,0,0,1-6.32,13.19,24.469,24.469,0,0,1-16.21,5.23,29.672,29.672,0,0,1-27.58-19.11v-0.8h4.4a24.176,24.176,0,0,0,23.17,16.75,18.059,18.059,0,0,0,11.5-3.19,10.461,10.461,0,0,0,4.4-8.45,7.9,7.9,0,0,0-1.65-4.95,12.278,12.278,0,0,0-5.23-3.58,65.745,65.745,0,0,0-13.14-3.53,50.062,50.062,0,0,1-16.37-5.17,13,13,0,0,1-6.12-11.5,15.605,15.605,0,0,1,6.1-12.7,23.337,23.337,0,0,1,15.4-4.96,29.893,29.893,0,0,1,8.9,1.32c2.38,0.76,10.98,3.88,16.66,16.51v0.66h-4.34a25.178,25.178,0,0,0-7.74-10.89,21.366,21.366,0,0,0-13.48-4.53,17.564,17.564,0,0,0-10.8,3.14,9.392,9.392,0,0,0-4.13,7.69,8.131,8.131,0,0,0,1.57,4.95,11.064,11.064,0,0,0,4.67,3.47,61.058,61.058,0,0,0,11.74,2.83,58.194,58.194,0,0,1,15.29,4.33Zm-32.39,27.07-4.88,4.61h-3.53v-14.77A39.388,39.388,0,0,0,2686.18,4477.39Zm33.12-51.31,3.42-5.23h3.08v13.7A40.934,40.934,0,0,0,2719.3,4426.08Zm109.3,22.26a35.946,35.946,0,0,1-19.92,5.22h-11.04v-2.92h7.95q9.345,0,13.47-3.17a12.36,12.36,0,0,0,4.13-10.46,13.828,13.828,0,0,0-1.86-7.83,10.856,10.856,0,0,0-5.45-4.05,40.9,40.9,0,0,0-11.83-.91l-27.33.05v-3.09h32.86q12.12,0,18.5,4.47a13.661,13.661,0,0,1,6.37,11.68A12.282,12.282,0,0,1,2828.6,4448.34Zm-23.92,33.05h-27.93v-2.99h4.39a5.665,5.665,0,0,0,3.17-.7,3.032,3.032,0,0,0,1.01-2.33v-47.68a3.083,3.083,0,0,0-.59-1.95h11.51a3.788,3.788,0,0,0-.48,1.95v47.67a2.48,2.48,0,0,0,.97,2.29,6.558,6.558,0,0,0,3.73.74h4.22v3Zm-21.26-27.84H2777v-2.91h6.42v2.91Zm106.52,24.71h2.45v3.04h-26.27v-3.04a12.6,12.6,0,0,0,6.67-1.52,13.608,13.608,0,0,0,4.51-5.77l20.12-41.52,2.02,4.41-11.95,24.51h25.6l-14.64-31.03,3.48-7.2h3.29l19.64,41.41-38.95-.01-3.63,7.87a15.683,15.683,0,0,0-1.7,4.9c0,1.32.47,1.94,2,2.81A17.473,17.473,0,0,0,2889.94,4478.26Zm25.53-14.84h10.28l5.03,10.6a6.915,6.915,0,0,0,6.9,4.33h2.25v3.05h-28.92v-3.05h2.3a13.544,13.544,0,0,0,6.11-.88c1.07-.5,1.79-2.12.69-4.21Zm97.59-39.79a19.561,19.561,0,0,0-15.28,6.58q-5.9,6.57-5.9,22.25,0.015,13.17,6.48,20.11a20.14,20.14,0,0,0,15.45,5.86,23.058,23.058,0,0,0,14.58-4.57,21.974,21.974,0,0,0,7.68-13.8h3.43a23.679,23.679,0,0,1-8.74,16.08,28.946,28.946,0,0,1-18.26,5.62,36.692,36.692,0,0,1-16.4-3.68,31.16,31.16,0,0,1-12.26-10.6,26.435,26.435,0,0,1-4.66-15.14,30.336,30.336,0,0,1,4.81-16.43,31.225,31.225,0,0,1,12.32-11.54,34.761,34.761,0,0,1,16.18-3.86,27.852,27.852,0,0,1,27.21,23.67h-3.38c-1.69-7.51-9.28-20.55-23.28-20.55h0.02Zm24.18-3h2.72l-0.17,16.61a33.273,33.273,0,0,0-6.27-9.55Zm50.89,2.63v-3.05h33.42v3.05h-33.42Zm33.42,58.12h-33.42v-3.04h6.32a7.446,7.446,0,0,0,4.32-.81,4.6,4.6,0,0,0,.98-3.52v-47.08a8.944,8.944,0,0,0-.17-1.78h10.59a8.21,8.21,0,0,0-.18,1.78v47.08c0,1.81.29,2.94,0.88,3.4a7.062,7.062,0,0,0,4.26.93h6.43Zm67.84-3.12h2.45v3.04h-26.27v-3.04a12.568,12.568,0,0,0,6.66-1.52,13.456,13.456,0,0,0,4.51-5.77l20.13-41.52,2.02,4.41-11.95,24.51h25.6l-14.64-31.03,3.48-7.2h3.28l19.65,41.41-38.95-.01-3.63,7.87a15.683,15.683,0,0,0-1.7,4.9c0,1.32.46,1.94,2,2.81A17.473,17.473,0,0,0,3189.39,4478.26Zm25.53-14.84h10.28l5.03,10.6a6.915,6.915,0,0,0,6.9,4.33h2.25v3.05h-28.92v-3.05h2.3a13.544,13.544,0,0,0,6.11-.88c1.07-.5,1.79-2.12.69-4.21Zm234.39,17.3-49.62-34.4,32.73-22.97a42.979,42.979,0,0,1,13.55-6.51q5.445-1.56,14.84-1.55v-3.88h-57.52v3.88q10.605,0.045,14.47,1.24t3.86,3.2c0,1.35-1.5,3.12-4.51,5.33l-23.3,17.06-29.85-20.96c-2.07-1.44-3.11-2.43-3.11-2.94a1.058,1.058,0,0,1,.48-0.8h-27.09l85.13,60.04q3.21,2.28,3.21,3.46a1.07,1.07,0,0,1-.16.57h28.17A12.4,12.4,0,0,1,3449.31,4480.72Zm-67.69-65.46v-3.85h-65.14v3.85h65.14Zm-33.59,59.01a50.851,50.851,0,0,1-14.65,7.31,62.26,62.26,0,0,1-16.9,2.41v3.87H3377v-3.87h-6.21c-4.29,0-7.55-.46-9.76-1.37s-3.33-2.22-3.33-3.91q0-3,5.69-6.92l22.46-15.27-5.91-4.2Zm55.16,9.72v3.87h62.88v-3.87C3465.09,4483.98,3403.19,4483.99,3403.19,4483.99Z" transform="translate(-2677.75 -4411.41)"/>
</svg>
